<svg xmlns="http://www.w3.org/2000/svg" xmlns:svg="http://www.w3.org/2000/svg" id="svg2" width="611.629" height="152.295" version="1.1" viewBox="0 0 573.402 142.777"><metadata id="metadata7"/><g id="layer1" transform="translate(-40,-280.93362)"><rect style="fill:#009dcc;fill-opacity:1" id="rect4136" width="573.402" height="88.571" x="40" y="280.934"/><rect style="fill:#0074a3;fill-opacity:1" id="rect4147-3" width="183.571" height="79.286" x="44.643" y="285.577"/><rect style="fill:#00acb0;fill-opacity:1" id="rect4138" width="172.143" height="68.571" x="49.286" y="291.648"/><text style="font-style:normal;font-weight:400;font-size:28.5933094px;line-height:125%;font-family:sans-serif;letter-spacing:0;word-spacing:0;fill:#e6e6e6;fill-opacity:1;stroke:none;stroke-width:1px;stroke-linecap:butt;stroke-linejoin:miter;stroke-opacity:1" id="text4140" x="55.239" y="352.333" transform="scale(1.0488161,0.95345601)" xml:space="preserve"><tspan id="tspan4142" x="55.239" y="352.333">AXI WRAM</tspan></text><rect style="fill:#0074a3;fill-opacity:1" id="rect4147" width="367.143" height="79.286" x="240.714" y="285.219"/><rect style="fill:#ffc845;fill-opacity:1" id="rect4144" width="117.747" height="68.571" x="484.941" y="290.934" ry="0"/><text style="font-style:normal;font-weight:400;font-size:11.15126324px;line-height:125%;font-family:sans-serif;letter-spacing:0;word-spacing:0;fill:#ececec;fill-opacity:1;stroke:none;stroke-width:1px;stroke-linecap:butt;stroke-linejoin:miter;stroke-opacity:1" id="text4152" x="56.169" y="349.602" transform="scale(0.97913319,1.0213115)" xml:space="preserve"><tspan id="tspan4154" x="56.169" y="349.602">PA 0x1ff80000 - 0x20000000</tspan></text><text style="font-style:normal;font-weight:400;font-size:28.51121521px;line-height:125%;font-family:sans-serif;letter-spacing:0;word-spacing:0;fill:#e6e6e6;fill-opacity:1;stroke:none;stroke-width:1px;stroke-linecap:butt;stroke-linejoin:miter;stroke-opacity:1" id="text4158" x="501.474" y="340.434" transform="scale(1.0177804,0.98253022)" xml:space="preserve"><tspan id="tspan4160" x="501.474" y="340.434">.text</tspan></text><path style="fill:#ffc845;fill-opacity:1" id="path4169" d="m 554.92073,369.7083 0.0498,27.65475 -427.72165,-0.0406 c -0.12296,-8.27831 -0.0342,-8.37613 -0.23429,-16.85343 l -9.9119,-0.0922 15.63004,-10.6685 15.76461,10.81504 -9.81218,0.0406 -0.16235,10.62825 401.7329,0.002 -0.0453,-21.38258 z"/><text style="font-style:normal;font-weight:400;font-size:39.52988434px;line-height:125%;font-family:sans-serif;letter-spacing:0;word-spacing:0;fill:#ffc845;fill-opacity:1;stroke:none;stroke-width:1px;stroke-linecap:butt;stroke-linejoin:miter;stroke-opacity:1" id="text4172" x="296.87" y="425.14" transform="scale(1.0033741,0.99663723)" xml:space="preserve"><tspan id="tspan4174" x="296.87" y="425.14" style="font-style:normal;font-variant:normal;font-weight:700;font-stretch:normal;font-family:Consolas;-inkscape-font-specification:'Consolas Bold';fill:#ffc845;fill-opacity:1">R<tspan style="fill:red" id="tspan4240">W</tspan>X</tspan></text><rect style="fill:#ff3b2a;fill-opacity:1" id="rect4138-8" width="172.143" height="68.571" x="247.378" y="290.43"/><text style="font-style:normal;font-weight:400;font-size:28.5933094px;line-height:125%;font-family:sans-serif;letter-spacing:0;word-spacing:0;fill:#e6e6e6;fill-opacity:1;stroke:none;stroke-width:1px;stroke-linecap:butt;stroke-linejoin:miter;stroke-opacity:1" id="text4140-6" x="243.835" y="351.519" transform="scale(1.0488161,0.953456)" xml:space="preserve"><tspan id="tspan4142-0" x="243.835" y="351.519">AXI WRAM</tspan></text><text style="font-style:normal;font-weight:400;font-size:11.15126324px;line-height:125%;font-family:sans-serif;letter-spacing:0;word-spacing:0;fill:#ececec;fill-opacity:1;stroke:none;stroke-width:1px;stroke-linecap:butt;stroke-linejoin:miter;stroke-opacity:1" id="text4152-4" x="258.464" y="348.307" transform="scale(0.9791332,1.0213115)" xml:space="preserve"><tspan id="tspan4154-5" x="258.464" y="348.307">VA 0xdff80000 - 0xe0000000</tspan></text><path style="fill:#ff3b2a;fill-opacity:1" id="path4169-2" d="m 341.86818,369.91869 -0.0386,27.40221 -214.55198,-0.16687 c -0.0605,-8.27831 -0.08,-8.06046 -0.17851,-16.53776 l -9.99516,-0.21847 15.58906,-10.79476 15.78158,10.9413 -9.8829,0.0406 0.0463,9.74437 195.88195,0.12827 -0.0223,-20.4987 z"/></g></svg>